<svg id="Layer_1" data-name="Layer 1" xmlns="http://www.w3.org/2000/svg" viewBox="0 0 400 140"><defs><style>.cls-1{fill:#303333}.cls-2{fill:#96c943}</style></defs><title>logo_prodyna</title><path class="cls-1" d="M31.3 52.66H10v34.8h7v-9h14.3a12.93 12.93 0 0 0 13-13 12.76 12.76 0 0 0-13-12.81m0 18.78H17V59.49h14.3a5.93 5.93 0 0 1 5.55 6.19 6 6 0 0 1-5.55 5.76m43.55-18.78h-22.2v34.8h7v-9h15l4.69 8.75h7.9l-5.77-10.64a13.08 13.08 0 0 0 6.19-11.1 12.85 12.85 0 0 0-12.81-12.81m0 19H59.91v-12h14.94a6 6 0 0 1 6 6 6.45 6.45 0 0 1-6 6m58.28 2.99v-9a12.67 12.67 0 0 0-12.6-12.81h-12.59a12.85 12.85 0 0 0-12.81 12.84v9.18a12.84 12.84 0 0 0 12.81 12.81h12.38a13 13 0 0 0 12.81-13m-6.83 0a5.56 5.56 0 0 1-5.55 5.76h-12.6a5.56 5.56 0 0 1-5.76-5.55v-9.2a6.08 6.08 0 0 1 5.76-6h12.6a5.74 5.74 0 0 1 5.76 5.77v.21l-.21 9zm49.31-.02v-9a13 13 0 0 0-12.59-13h-21.35v34.8H163c7-.22 12.81-6 12.59-12.81m-6.83-.22a5.56 5.56 0 0 1-5.55 5.77h-14.5v-20.7h14.09a5.74 5.74 0 0 1 5.77 5.76v.22l.21 9zm42.08-21.76l-12.17 18.57-12.17-18.57h-8.32l17.07 26.04v8.54h7.05V78.7l17.08-26.04h-8.54zm45.9 34.58H264V52.66h-7.05v24.98l-23.91-24.98h-7.47v34.58h7.04V62.27l24.13 24.97zm25.19-8.75h23.27l4.48 8.75h7.9l-18.15-34.8h-11.95l-18.15 34.8h7.9zm9.82-18.79h3.63l6.19 12h-16z"/><path class="cls-2" d="M357.93 37.93a32 32 0 1 0 32 32 32 32 0 0 0-32-32M337 80.41l7.68-7.68-12.16-12.17h10.68l12.17 12.17-7.69 7.68zm32.87 6.83H351.1l13.45-13.45-21.14-21.35h18.79l21.13 21.14z"/></svg>